<svg width="1440" height="2212" viewBox="0 0 1440 2212" fill="none" xmlns="http://www.w3.org/2000/svg">
<g opacity="0.3">
<rect y="0.715343" width="377.759" height="377.759" transform="matrix(0.698773 0.715343 -0.698773 0.715343 191.167 -168.796)" stroke="white"/>
<rect y="0.715343" width="377.759" height="377.759" transform="matrix(0.698773 0.715343 -0.698773 0.715343 1249.83 -168.796)" stroke="white"/>
<rect y="0.70717" width="373.329" height="373.329" transform="matrix(0.707043 0.70717 -0.707043 0.70717 720.5 -19.3071)" stroke="white"/>
<rect y="0.70717" width="373.329" height="373.329" transform="matrix(0.707043 0.70717 -0.707043 0.70717 191.167 254.75)" stroke="white"/>
<rect y="0.70717" width="373.329" height="373.329" transform="matrix(0.707043 0.70717 -0.707043 0.70717 1249.83 254.75)" stroke="white"/>
<rect y="0.70717" width="373.329" height="373.329" transform="matrix(0.707043 0.70717 -0.707043 0.70717 720.5 391.778)" stroke="white"/>
</g>
<g opacity="0.3">
<rect y="0.715343" width="377.759" height="377.759" transform="matrix(0.698773 0.715343 -0.698773 0.715343 191.167 664.204)" stroke="white"/>
<rect y="0.715343" width="377.759" height="377.759" transform="matrix(0.698773 0.715343 -0.698773 0.715343 1249.83 664.204)" stroke="white"/>
<rect y="0.70717" width="373.329" height="373.329" transform="matrix(0.707043 0.70717 -0.707043 0.70717 720.5 813.693)" stroke="white"/>
<rect y="0.70717" width="373.329" height="373.329" transform="matrix(0.707043 0.70717 -0.707043 0.70717 191.167 1087.75)" stroke="white"/>
<rect y="0.70717" width="373.329" height="373.329" transform="matrix(0.707043 0.70717 -0.707043 0.70717 1249.83 1087.75)" stroke="white"/>
<rect y="0.70717" width="373.329" height="373.329" transform="matrix(0.707043 0.70717 -0.707043 0.70717 720.5 1224.78)" stroke="white"/>
</g>
<g opacity="0.3">
<rect y="0.715343" width="377.759" height="377.759" transform="matrix(0.698773 0.715343 -0.698773 0.715343 191.167 1512.2)" stroke="white"/>
<rect y="0.715343" width="377.759" height="377.759" transform="matrix(0.698773 0.715343 -0.698773 0.715343 1249.83 1512.2)" stroke="white"/>
<rect y="0.70717" width="373.329" height="373.329" transform="matrix(0.707043 0.70717 -0.707043 0.70717 720.5 1661.69)" stroke="white"/>
<rect y="0.70717" width="373.329" height="373.329" transform="matrix(0.707043 0.70717 -0.707043 0.70717 191.167 1935.75)" stroke="white"/>
<rect y="0.70717" width="373.329" height="373.329" transform="matrix(0.707043 0.70717 -0.707043 0.70717 1249.83 1935.75)" stroke="white"/>
<rect y="0.70717" width="373.329" height="373.329" transform="matrix(0.707043 0.70717 -0.707043 0.70717 720.5 2072.78)" stroke="white"/>
</g>
</svg>
