<svg width="26" height="40" viewBox="0 0 26 40" fill="none" xmlns="http://www.w3.org/2000/svg">
<path d="M4.81084 21.677H1.38281V0.5H24.8574V39.3587H5.31084V22.177V21.677H4.81084Z" stroke="white"/>
<path d="M19.0634 13.2861V13.7861H19.5634V13.2861H19.0634ZM6.82223 12.9326C6.62697 13.1279 6.62697 13.4444 6.82223 13.6397L10.0042 16.8217C10.1995 17.0169 10.5161 17.0169 10.7113 16.8217C10.9066 16.6264 10.9066 16.3098 10.7113 16.1146L7.88289 13.2861L10.7113 10.4577C10.9066 10.2625 10.9066 9.94588 10.7113 9.75061C10.5161 9.55535 10.1995 9.55535 10.0042 9.75061L6.82223 12.9326ZM18.5634 6.99268V13.2861H19.5634V6.99268H18.5634ZM19.0634 12.7861H7.17578V13.7861H19.0634V12.7861Z" fill="white"/>
</svg>
