<svg width="160" height="32" viewBox="0 0 160 32" fill="none" xmlns="http://www.w3.org/2000/svg">
<rect x="36.5" y="4.5" width="23" height="23" stroke="white"/>
<path d="M36.5 4.5L32.5 0.5" stroke="white"/>
<path d="M63.5 31.5L59.5 27.5" stroke="white"/>
<path d="M63.5 0.5L59 5" stroke="white"/>
<path d="M36.5 27.5L32.5 31.5" stroke="white"/>
<rect x="32.25" y="0.25" width="31.5" height="31.5" stroke="white" stroke-width="0.5"/>
<path d="M50.032 23.328C49.4987 23.328 49.0347 23.2213 48.64 23.008C48.256 22.8053 47.9573 22.512 47.744 22.128C47.5307 21.744 47.424 21.2907 47.424 20.768V19.648H48.368V20.624C48.368 21.2107 48.512 21.664 48.8 21.984C49.0987 22.304 49.5253 22.464 50.08 22.464C50.56 22.464 50.9707 22.2987 51.312 21.968C51.664 21.648 51.888 21.2267 51.984 20.704L52.768 21.136C52.6827 21.552 52.5067 21.9253 52.24 22.256C51.984 22.5867 51.664 22.848 51.28 23.04C50.896 23.232 50.48 23.328 50.032 23.328ZM48 20.048C46.8053 20.048 45.7547 19.7973 44.848 19.296C43.9413 18.7947 43.2373 18.0907 42.736 17.184C42.2453 16.2773 42 15.2267 42 14.032C42 12.8267 42.2453 11.7707 42.736 10.864C43.2373 9.95733 43.9413 9.25333 44.848 8.752C45.7547 8.25067 46.8053 8 48 8C49.1947 8 50.2453 8.25067 51.152 8.752C52.0587 9.25333 52.7573 9.95733 53.248 10.864C53.7493 11.7707 54 12.8267 54 14.032C54 15.2267 53.7493 16.2773 53.248 17.184C52.7573 18.0907 52.0587 18.7947 51.152 19.296C50.2453 19.7973 49.1947 20.048 48 20.048ZM48 19.184C49.0133 19.184 49.8987 18.9707 50.656 18.544C51.424 18.1173 52.016 17.5147 52.432 16.736C52.848 15.9573 53.056 15.056 53.056 14.032C53.056 12.9973 52.848 12.096 52.432 11.328C52.016 10.5493 51.424 9.94667 50.656 9.52C49.8987 9.08267 49.0133 8.864 48 8.864C46.9867 8.864 46.096 9.08267 45.328 9.52C44.5707 9.94667 43.984 10.5493 43.568 11.328C43.152 12.096 42.944 12.9973 42.944 14.032C42.944 15.056 43.152 15.9573 43.568 16.736C43.984 17.5147 44.5707 18.1173 45.328 18.544C46.096 18.9707 46.9867 19.184 48 19.184Z" fill="white"/>
<path d="M0 16L10 21.7735L10 10.2265L0 16ZM24 15L9 15L9 17L24 17L24 15Z" fill="white"/>
<rect x="100.5" y="4.5" width="23" height="23" stroke="white"/>
<path d="M100.5 4.5L96.5 0.5" stroke="white"/>
<path d="M127.5 31.5L123.5 27.5" stroke="white"/>
<path d="M127.5 0.5L123 5" stroke="white"/>
<path d="M100.5 27.5L96.5 31.5" stroke="white"/>
<rect x="96.25" y="0.25" width="31.5" height="31.5" stroke="white" stroke-width="0.5"/>
<path d="M107 21.248V10H110.76C112.659 10 114.12 10.4853 115.144 11.456C116.168 12.4267 116.68 13.8187 116.68 15.632C116.68 16.8267 116.451 17.8453 115.992 18.688C115.533 19.52 114.861 20.1547 113.976 20.592C113.101 21.0293 112.029 21.248 110.76 21.248H107ZM110.76 20.384C111.827 20.384 112.728 20.2027 113.464 19.84C114.211 19.4773 114.776 18.9387 115.16 18.224C115.544 17.5093 115.736 16.6453 115.736 15.632C115.736 14.096 115.304 12.9173 114.44 12.096C113.587 11.2747 112.36 10.864 110.76 10.864H107.944V20.384H110.76Z" fill="white"/>
<path d="M160 16L150 10.2265V21.7735L160 16ZM136 17H151V15H136V17Z" fill="white"/>
</svg>
