<svg width="180" height="119" viewBox="0 0 180 119" fill="none" xmlns="http://www.w3.org/2000/svg">
<path d="M8.0578 50.0009C9.84206 50.0009 11.2451 50.3659 12.267 51.0958C13.2889 51.8257 13.7999 52.9449 13.7999 54.4534C13.7999 55.4105 13.5809 56.2377 13.1429 56.9352C12.705 57.6165 12.0886 58.1517 11.2938 58.541C10.5152 58.9303 9.59875 59.1493 8.54442 59.198L8.17945 57.8354C9.41222 57.8679 10.5152 58.0868 11.4884 58.4924C12.4617 58.8817 13.2322 59.4332 13.7999 60.1469C14.3838 60.8443 14.6758 61.6797 14.6758 62.6529C14.6758 63.5451 14.5055 64.3074 14.1648 64.94C13.8404 65.5726 13.3944 66.0917 12.8266 66.4972C12.2751 66.8865 11.6425 67.1785 10.9288 67.3731C10.2314 67.5515 9.50143 67.6407 8.73906 67.6407H3.41061V50.0009H8.0578ZM8.52009 57.6408C9.44466 57.6408 10.1178 57.3813 10.5395 56.8622C10.9613 56.3269 11.1721 55.7024 11.1721 54.9887C11.1721 54.1128 10.8964 53.4721 10.3449 53.0666C9.80962 52.6611 9.0878 52.4583 8.17945 52.4583H5.94102V57.6408H8.52009ZM8.61741 65.2807C9.57442 65.2807 10.3854 65.0698 11.0505 64.6481C11.7155 64.2263 12.0481 63.5694 12.0481 62.6773C12.0481 62.0284 11.8696 61.5175 11.5128 61.1444C11.1559 60.7713 10.7017 60.5037 10.1502 60.3415C9.59875 60.1793 9.03103 60.0982 8.44709 60.0982H5.94102V65.2807H8.61741Z" fill="white"/>
<rect x="35.2124" y="51.6296" width="10.1693" height="10.1693" transform="rotate(45 35.2124 51.6296)" stroke="white" stroke-width="2.28101"/>
<path d="M65.2696 53.3342C64.6532 53.0098 63.9882 52.7341 63.2745 52.507C62.5608 52.2799 61.8714 52.1664 61.2064 52.1664C60.2818 52.1664 59.5519 52.3772 59.0166 52.799C58.4813 53.2045 58.2137 53.7722 58.2137 54.5021C58.2137 55.0049 58.3921 55.4429 58.749 55.816C59.1058 56.189 59.5681 56.5135 60.1358 56.7892C60.7035 57.065 61.3037 57.3245 61.9363 57.5678C62.6662 57.8273 63.3718 58.1598 64.0531 58.5654C64.7343 58.9546 65.2939 59.4818 65.7319 60.1469C66.1698 60.8119 66.3888 61.704 66.3888 62.8232C66.3888 63.7478 66.1536 64.5913 65.6832 65.3537C65.2128 66.116 64.5397 66.7243 63.6638 67.1785C62.8041 67.6164 61.766 67.8354 60.5494 67.8354C59.414 67.8354 58.3353 67.657 57.3134 67.3001C56.3078 66.927 55.44 66.4891 54.71 65.9863L55.8536 63.9668C56.4213 64.4047 57.1188 64.7859 57.946 65.1103C58.7733 65.4348 59.56 65.597 60.3061 65.597C60.8576 65.597 61.3929 65.5077 61.912 65.3293C62.431 65.1347 62.8609 64.8346 63.2015 64.4291C63.5583 64.0236 63.7368 63.4883 63.7368 62.8232C63.7368 62.2717 63.5827 61.8014 63.2745 61.4121C62.9663 61.0228 62.5608 60.6902 62.0579 60.4145C61.5713 60.1387 61.0442 59.8954 60.4764 59.6846C59.9249 59.4737 59.3572 59.2466 58.7733 59.0033C58.2056 58.7438 57.6784 58.4275 57.1918 58.0544C56.7214 57.6813 56.3321 57.2272 56.0239 56.6919C55.7319 56.1404 55.5859 55.4753 55.5859 54.6968C55.5859 53.7397 55.8049 52.9125 56.2429 52.215C56.6971 51.5175 57.3215 50.966 58.1164 50.5605C58.9112 50.155 59.8195 49.936 60.8414 49.9036C62.0093 49.9036 63.0312 50.0496 63.9071 50.3415C64.783 50.6173 65.5535 50.9579 66.2185 51.3634L65.2696 53.3342Z" fill="white"/>
<path d="M79.3118 50.0009H91.0635V52.4583H86.392V67.6407H83.8373V52.4583H79.3118V50.0009Z" fill="white"/>
<path d="M109.899 50.0009C111.131 50.0009 112.226 50.2199 113.183 50.6578C114.14 51.0796 114.886 51.7041 115.422 52.5313C115.973 53.3423 116.249 54.348 116.249 55.5483C116.249 56.2458 116.144 56.9352 115.933 57.6165C115.722 58.2977 115.381 58.9141 114.911 59.4656C114.457 60.0171 113.84 60.4632 113.062 60.8038C112.299 61.1282 111.358 61.2904 110.239 61.2904H107.636V67.6407H105.105V50.0009H109.899ZM110.191 58.833C111.099 58.833 111.796 58.6627 112.283 58.322C112.786 57.9652 113.135 57.5435 113.329 57.0568C113.524 56.554 113.621 56.0836 113.621 55.6457C113.621 55.3212 113.564 54.9806 113.451 54.6238C113.337 54.2507 113.151 53.9019 112.891 53.5775C112.648 53.2369 112.315 52.9693 111.894 52.7746C111.472 52.5638 110.953 52.4583 110.337 52.4583H107.636V58.833H110.191ZM113.159 60.3415L117.733 67.6407H114.765L110.118 60.3902L113.159 60.3415Z" fill="white"/>
<rect x="137.907" y="51.6296" width="10.1693" height="10.1693" transform="rotate(45 137.907 51.6296)" stroke="white" stroke-width="2.28101"/>
<path d="M158.792 67.6407V49.417H158.816L168.159 62.6773L167.064 62.4583L176.383 49.417H176.432V67.6407H173.901V55.1834L174.047 56.4729L167.526 65.7429H167.478L160.811 56.4729L161.249 55.2807V67.6407H158.792Z" fill="white"/>
<path fill-rule="evenodd" clip-rule="evenodd" d="M123.622 38.873H126.848L89.5879 1.61292L87.975 0L86.362 1.61292L49.1019 38.873H52.3278L87.975 3.22584L123.622 38.873ZM128.609 77.6503H125.383L88.0254 115.008L50.6675 77.6503H47.4417L86.4125 116.621L88.0254 118.234L89.6383 116.621L128.609 77.6503Z" fill="#FF00D6"/>
<path fill-rule="evenodd" clip-rule="evenodd" d="M119.075 38.873H122.301L85.0405 1.61292L83.4276 0L81.8147 1.61292L44.5546 38.873H47.7804L83.4276 3.22584L119.075 38.873ZM124.062 77.6503H120.836L83.478 115.008L46.1201 77.6503H42.8943L81.8651 116.621L83.478 118.234L85.0909 116.621L124.062 77.6503Z" fill="#00FFB2"/>
<path fill-rule="evenodd" clip-rule="evenodd" d="M122.106 38.873H125.332L88.072 1.61292L86.4591 0L84.8462 1.61292L47.586 38.873H50.8119L86.4591 3.22584L122.106 38.873ZM127.093 77.6503H123.867L86.5095 115.008L49.1516 77.6503H45.9258L84.8966 116.621L86.5095 118.234L88.1224 116.621L127.093 77.6503Z" fill="white"/>
</svg>
