<svg width="16" height="16" viewBox="0 0 16 16" fill="none" xmlns="http://www.w3.org/2000/svg">
<path fill-rule="evenodd" clip-rule="evenodd" d="M13.2502 7.125L8.00024 1.875L2.75024 7.125H3.98768L8.00024 3.11244L12.0128 7.125H13.2502ZM15.0002 8.875H13.7628L8.00024 14.6376L2.23768 8.875H1.00024L8.00024 15.875L15.0002 8.875Z" fill="#FF00D6"/>
<path fill-rule="evenodd" clip-rule="evenodd" d="M15.0002 7.125L8.00024 0.125L1.00024 7.125H2.23768L8.00024 1.36244L13.7628 7.125H15.0002ZM13.2502 8.875H12.0128L8.00024 12.8876L3.98768 8.875H2.75024L8.00024 14.125L13.2502 8.875Z" fill="#00FFB2"/>
<path fill-rule="evenodd" clip-rule="evenodd" d="M14.1252 7.12506L8.10321 1.10303L2.08118 7.12506H3.31861L8.10321 2.34046L12.8878 7.12506H14.1252ZM14.3312 8.87506H13.0937L8.10321 13.8656L3.11268 8.87506H1.87524L8.10321 15.103L14.3312 8.87506Z" fill="white"/>
</svg>
